<svg xmlns="http://www.w3.org/2000/svg" viewBox="0 0 800 260" width="800" height="260" role="img" aria-label="microservices 12 services deployed">

  <rect width="800" height="260" rx="10" fill="#0d1117" stroke="#30363d"/>
  <path d="M 0,10 A 10,10 0 0 1 10,0 L 790,0 A 10,10 0 0 1 800,10 L 800,36 L 0,36 Z" fill="#161b22"/>
  <line x1="0" y1="36" x2="800" y2="36" stroke="#30363d"/>

  <circle cx="22" cy="18" r="6" fill="#ff5f57"/>
  <circle cx="42" cy="18" r="6" fill="#febc2e"/>
  <circle cx="62" cy="18" r="6" fill="#28c840"/>

  <text x="400" y="22" text-anchor="middle" font-family="ui-monospace, SFMono-Regular, 'SF Mono', Menlo, Monaco, Consolas, monospace" font-size="11" fill="#6e7681" letter-spacing="1">microservices &#8212; 12+ deployed &#183; 8 healthy &#183; 3 busy &#183; 1 scaling</text>

  <g font-family="ui-monospace, SFMono-Regular, 'SF Mono', Menlo, Monaco, Consolas, monospace">

    <g transform="translate(10, 46)">
      <rect width="186" height="96" rx="6" fill="#161b22" stroke="#30363d"/>
      <circle cx="20" cy="20" r="4" fill="#f59e0b">
        <animate attributeName="opacity" values="1;0.3;1" dur="1.8s" repeatCount="indefinite"/>
      </circle>
      <text x="32" y="24" fill="#f59e0b" font-size="11" font-weight="700" letter-spacing="0.6">API GATEWAY</text>
      <text x="12" y="44" fill="#6e7681" font-size="10">Express &#183; TypeScript</text>
      <text x="12" y="68" fill="#c9d1d9" font-size="11">Routing 12 svc</text>
      <text x="12" y="84" fill="#8b949e" font-size="11">18ms p50 &#183; 847 req/s</text>
    </g>

    <g transform="translate(208, 46)">
      <rect width="186" height="96" rx="6" fill="#161b22" stroke="#30363d"/>
      <circle cx="20" cy="20" r="4" fill="#f59e0b">
        <animate attributeName="opacity" values="1;0.3;1" dur="1.8s" repeatCount="indefinite" begin="0.3s"/>
      </circle>
      <text x="32" y="24" fill="#f59e0b" font-size="11" font-weight="700" letter-spacing="0.6">VISION-SVC</text>
      <text x="12" y="44" fill="#6e7681" font-size="10">FastAPI &#183; PyTorch</text>
      <text x="12" y="68" fill="#c9d1d9" font-size="11">YOLOv8 &#183; ResNet</text>
      <text x="12" y="84" fill="#8b949e" font-size="11">CUDA &#183; 5 img types</text>
    </g>

    <g transform="translate(406, 46)">
      <rect width="186" height="96" rx="6" fill="#161b22" stroke="#30363d"/>
      <circle cx="20" cy="20" r="4" fill="#60a5fa">
        <animate attributeName="opacity" values="1;0.3;1" dur="1.8s" repeatCount="indefinite" begin="0.6s"/>
      </circle>
      <text x="32" y="24" fill="#60a5fa" font-size="11" font-weight="700" letter-spacing="0.6">GEMINI-SVC</text>
      <text x="12" y="44" fill="#6e7681" font-size="10">Google Gemini</text>
      <text x="12" y="68" fill="#c9d1d9" font-size="11">Narrative gen</text>
      <text x="12" y="84" fill="#8b949e" font-size="11">batch 12 &#183; 2.1s avg</text>
    </g>

    <g transform="translate(604, 46)">
      <rect width="186" height="96" rx="6" fill="#161b22" stroke="#30363d"/>
      <circle cx="20" cy="20" r="4" fill="#60a5fa">
        <animate attributeName="opacity" values="1;0.3;1" dur="1.8s" repeatCount="indefinite" begin="0.9s"/>
      </circle>
      <text x="32" y="24" fill="#60a5fa" font-size="11" font-weight="700" letter-spacing="0.6">TTS-SVC</text>
      <text x="12" y="44" fill="#6e7681" font-size="10">FastAPI &#183; optimized</text>
      <text x="12" y="68" fill="#c9d1d9" font-size="11">800 MB &#8594; 50 MB</text>
      <text x="12" y="84" fill="#8b949e" font-size="11">94% mem saved</text>
    </g>

    <g transform="translate(10, 154)">
      <rect width="186" height="96" rx="6" fill="#161b22" stroke="#30363d"/>
      <circle cx="20" cy="20" r="4" fill="#60a5fa">
        <animate attributeName="opacity" values="1;0.3;1" dur="1.8s" repeatCount="indefinite" begin="1.2s"/>
      </circle>
      <text x="32" y="24" fill="#60a5fa" font-size="11" font-weight="700" letter-spacing="0.6">ERP-PROXY</text>
      <text x="12" y="44" fill="#6e7681" font-size="10">Elixir &#183; Phoenix</text>
      <text x="12" y="68" fill="#c9d1d9" font-size="11">Acumatica sync</text>
      <text x="12" y="84" fill="#8b949e" font-size="11">Kafka &#183; Temporal</text>
    </g>

    <g transform="translate(208, 154)">
      <rect width="186" height="96" rx="6" fill="#161b22" stroke="#30363d"/>
      <circle cx="20" cy="20" r="4" fill="#4ade80"/>
      <text x="32" y="24" fill="#4ade80" font-size="11" font-weight="700" letter-spacing="0.6">TWILIO-HUB</text>
      <text x="12" y="44" fill="#6e7681" font-size="10">Azure Functions</text>
      <text x="12" y="68" fill="#c9d1d9" font-size="11">1M+ req/month</text>
      <text x="12" y="84" fill="#8b949e" font-size="11">99.9% uptime</text>
    </g>

    <g transform="translate(406, 154)">
      <rect width="186" height="96" rx="6" fill="#161b22" stroke="#30363d"/>
      <circle cx="20" cy="20" r="4" fill="none" stroke="#6e7681" stroke-width="1.5"/>
      <text x="32" y="24" fill="#6e7681" font-size="11" font-weight="700" letter-spacing="0.6">KYC-SVC</text>
      <text x="12" y="44" fill="#6e7681" font-size="10">.NET &#183; Azure</text>
      <text x="12" y="68" fill="#8b949e" font-size="11">Compliance ready</text>
      <text x="12" y="84" fill="#4b5563" font-size="11" font-style="italic">idle</text>
    </g>

    <g transform="translate(604, 154)">
      <rect width="186" height="96" rx="6" fill="#161b22" stroke="#30363d"/>
      <circle cx="20" cy="20" r="4" fill="#fbbf24">
        <animate attributeName="opacity" values="1;0.3;1" dur="1.8s" repeatCount="indefinite" begin="1.5s"/>
      </circle>
      <text x="32" y="24" fill="#fbbf24" font-size="11" font-weight="700" letter-spacing="0.6">AI-PLATFORM</text>
      <text x="12" y="44" fill="#6e7681" font-size="10">Rails 7 &#183; pgvector</text>
      <text x="12" y="68" fill="#c9d1d9" font-size="11">Scaling up</text>
      <text x="12" y="84" fill="#8b949e" font-size="11">Vue 3 &#183; Sidekiq</text>
    </g>

  </g>
</svg>
