<svg xmlns="http://www.w3.org/2000/svg" viewBox="0 0 800 240" width="800" height="240" role="img" aria-label="inference.v8 YOLOv8 EfficientNet AWS EC2 GPU monitor">

  <rect width="800" height="240" rx="10" fill="#0d1117" stroke="#30363d"/>
  <path d="M 0,10 A 10,10 0 0 1 10,0 L 790,0 A 10,10 0 0 1 800,10 L 800,36 L 0,36 Z" fill="#161b22"/>
  <line x1="0" y1="36" x2="800" y2="36" stroke="#30363d"/>

  <circle cx="22" cy="18" r="6" fill="#ff5f57"/>
  <circle cx="42" cy="18" r="6" fill="#febc2e"/>
  <circle cx="62" cy="18" r="6" fill="#28c840"/>

  <text x="400" y="22" text-anchor="middle" font-family="ui-monospace, SFMono-Regular, 'SF Mono', Menlo, Monaco, Consolas, monospace" font-size="11" fill="#6e7681" letter-spacing="1">inference.v8 &#8212; YOLOv8 + EfficientNet &#183; AWS EC2 GPU</text>

  <g transform="translate(710, 22)" font-family="ui-monospace, SFMono-Regular, 'SF Mono', Menlo, Monaco, Consolas, monospace" font-size="11" letter-spacing="1">
    <circle cx="-12" cy="-4" r="4" fill="#4ade80">
      <animate attributeName="opacity" values="1;0.3;1" dur="1.8s" repeatCount="indefinite"/>
    </circle>
    <text x="0" y="0" fill="#4ade80">INFERENCE</text>
  </g>

  <g font-family="ui-monospace, SFMono-Regular, 'SF Mono', Menlo, Monaco, Consolas, monospace" font-size="12" fill="#c9d1d9">

    <text x="24" y="64"><tspan fill="#6e7681">BATCH</tspan> <tspan fill="#c9d1d9" font-weight="700">847/1200</tspan>  &#183;  <tspan fill="#6e7681">PIPELINE</tspan> <tspan fill="#c9d1d9" font-weight="700">5 types</tspan></text>

    <rect x="260" y="55" width="200" height="11" fill="#21262d" rx="2"/>
    <rect x="260" y="55" height="11" fill="#4ade80" rx="2" width="140">
      <animate attributeName="width" values="138;142;145;148;140;138" keyTimes="0;0.25;0.5;0.75;0.9;1" dur="9s" repeatCount="indefinite"/>
    </rect>

    <text x="472" y="64" font-weight="700" fill="#fbbf24">71%<animate attributeName="opacity" values="1;1;0;0;0;0" keyTimes="0;0.33;0.34;0.66;0.67;1" dur="9s" repeatCount="indefinite"/></text>
    <text x="472" y="64" font-weight="700" fill="#fbbf24" opacity="0">73%<animate attributeName="opacity" values="0;0;1;1;0;0" keyTimes="0;0.33;0.34;0.66;0.67;1" dur="9s" repeatCount="indefinite"/></text>
    <text x="472" y="64" font-weight="700" fill="#fbbf24" opacity="0">75%<animate attributeName="opacity" values="0;0;0;0;1;1" keyTimes="0;0.33;0.34;0.66;0.67;1" dur="9s" repeatCount="indefinite"/></text>

    <text x="24" y="86"><tspan fill="#6e7681">latency</tspan>  <tspan fill="#4ade80" font-weight="700">18ms</tspan> <tspan fill="#4ade80" font-size="10">p50</tspan>   <tspan fill="#6e7681">conf</tspan>  <tspan fill="#4ade80" font-weight="700">0.94</tspan>   <tspan fill="#6e7681">models</tspan>  <tspan fill="#fbbf24" font-weight="700">4 active</tspan></text>

    <line x1="24" y1="100" x2="776" y2="100" stroke="#21262d"/>

    <text x="24" y="120" fill="#6e7681">GPU</text>
    <rect x="64" y="111" width="100" height="11" fill="#21262d" rx="2"/>
    <rect x="64" y="111" width="82" height="11" fill="#60a5fa" rx="2">
      <animate attributeName="width" values="80;85;78;83;81;82" dur="6s" repeatCount="indefinite"/>
    </rect>
    <text x="176" y="120"><tspan fill="#c9d1d9" font-weight="700">82%</tspan>   <tspan fill="#6e7681">VRAM</tspan> <tspan fill="#c9d1d9" font-weight="700">19.7</tspan><tspan fill="#6e7681">/24GB</tspan>   <tspan fill="#4ade80" font-weight="700">68&#176;C</tspan></text>

    <text x="24" y="142" fill="#6e7681">CPU</text>
    <rect x="64" y="133" width="100" height="11" fill="#21262d" rx="2"/>
    <rect x="64" y="133" width="28" height="11" fill="#60a5fa" rx="2">
      <animate attributeName="width" values="28;34;30;26;32;28" dur="4.5s" repeatCount="indefinite"/>
    </rect>
    <text x="176" y="142"><tspan fill="#c9d1d9" font-weight="700">28%</tspan>   <tspan fill="#6e7681">RAM </tspan> <tspan fill="#c9d1d9" font-weight="700">12.4</tspan><tspan fill="#6e7681">/32GB</tspan></text>

    <line x1="24" y1="156" x2="776" y2="156" stroke="#21262d"/>

    <text x="24" y="176" font-size="11" fill="#4b5563">[batch 847] yolov8 palm 0.94 &#183; efficientnet face ok</text>
    <text x="24" y="194" font-size="11" fill="#4b5563">[batch 846] resnet iris 0.97 &#183; gemini narrative queued</text>
    <text x="24" y="212" font-size="11" fill="#4b5563">[batch 845] faster-rcnn hand 0.91 &#183; tts 50MB peak</text>

  </g>
</svg>
